<svg xmlns="http://www.w3.org/2000/svg" width="788.0" height="1709.265334794732" viewBox="0 0 788.0 1709.265334794732" class="keymap">
<defs>/* start glyphs */
</defs>/* end glyphs */
<style>/* inherit to force styles through use tags*/
svg path {
    fill: inherit;
}
/* font and background color specifications */
svg.keymap {
    font-family: SFMono-Regular,Consolas,Liberation Mono,Menlo,monospace;
    font-size: 14px;
    font-kerning: normal;
    text-rendering: optimizeLegibility;
    fill: #24292e;
}

/* default key styling */
rect.key {
    fill: #f6f8fa;
    stroke: #c9cccf;
    stroke-width: 1;
}

/* color accent for combo boxes */
rect.combo {
    fill: #cdf;
}

/* color accent for held keys */
rect.held, rect.combo.held {
    fill: #fdd;
}

/* color accent for ghost (optional) keys */
rect.ghost, rect.combo.ghost {
    fill: #ddd;
}

text {
    text-anchor: middle;
    dominant-baseline: middle;
}

/* styling for layer labels */
text.label {
    font-weight: bold;
    text-anchor: start;
    stroke: white;
    stroke-width: 2;
    paint-order: stroke;
}

/* styling for combo tap, and key hold/shifted label text */
text.combo, text.hold, text.shifted {
    font-size: 11px;
}

text.hold {
    text-anchor: middle;
    dominant-baseline: auto;
}

text.shifted {
    text-anchor: middle;
    dominant-baseline: hanging;
}

/* styling for hold/shifted label text in combo box */
text.combo.hold, text.combo.shifted {
    font-size: 8px;
}

/* styling for combo dendrons */
path.combo {
    stroke-width: 1;
    stroke: gray;
    fill: none;
}

/* Start Tabler Icons Cleanup */
/* cannot use height/width with glyphs */
.icon-tabler &gt; path {
    fill: inherit;
    stroke: inherit;
}
/* hide tabler's default box */
.icon-tabler &gt; path[stroke="none"][fill="none"] {
    visibility: collapse;
}
/* End Tabler Icons Cleanup */
</style>
<g class="layer-default">
<text x="30.0" y="28.0" class="label">default:</text>
<rect rx="6.0" ry="6.0" x="32.0" y="79.0" width="52.0" height="52.0" class="key"/>
<text x="58.0" y="105.0" class="tap">Q</text>
<rect rx="6.0" ry="6.0" x="88.0" y="65.0" width="52.0" height="52.0" class="key"/>
<text x="114.0" y="91.0" class="tap">W</text>
<rect rx="6.0" ry="6.0" x="144.0" y="58.0" width="52.0" height="52.0" class="key"/>
<text x="170.0" y="84.0" class="tap">F</text>
<rect rx="6.0" ry="6.0" x="200.0" y="65.0" width="52.0" height="52.0" class="key"/>
<text x="226.0" y="91.0" class="tap">P</text>
<rect rx="6.0" ry="6.0" x="256.0" y="72.0" width="52.0" height="52.0" class="key"/>
<text x="282.0" y="98.0" class="tap">G</text>
<rect rx="6.0" ry="6.0" x="480.0" y="72.0" width="52.0" height="52.0" class="key"/>
<text x="506.0" y="98.0" class="tap">J</text>
<rect rx="6.0" ry="6.0" x="536.0" y="65.0" width="52.0" height="52.0" class="key"/>
<text x="562.0" y="91.0" class="tap">L</text>
<rect rx="6.0" ry="6.0" x="592.0" y="58.0" width="52.0" height="52.0" class="key"/>
<text x="618.0" y="84.0" class="tap">U</text>
<rect rx="6.0" ry="6.0" x="648.0" y="65.0" width="52.0" height="52.0" class="key"/>
<text x="674.0" y="91.0" class="tap">Y</text>
<rect rx="6.0" ry="6.0" x="704.0" y="79.0" width="52.0" height="52.0" class="key"/>
<text x="730.0" y="105.0" class="tap">;</text>
<rect rx="6.0" ry="6.0" x="32.0" y="135.0" width="52.0" height="52.0" class="key"/>
<text x="58.0" y="161.0" class="tap">A</text>
<rect rx="6.0" ry="6.0" x="88.0" y="121.0" width="52.0" height="52.0" class="key"/>
<text x="114.0" y="147.0" class="tap">R</text>
<rect rx="6.0" ry="6.0" x="144.0" y="114.0" width="52.0" height="52.0" class="key"/>
<text x="170.0" y="140.0" class="tap">S</text>
<rect rx="6.0" ry="6.0" x="200.0" y="121.0" width="52.0" height="52.0" class="key"/>
<text x="226.0" y="147.0" class="tap">T</text>
<rect rx="6.0" ry="6.0" x="256.0" y="128.0" width="52.0" height="52.0" class="key"/>
<text x="282.0" y="154.0" class="tap">D</text>
<rect rx="6.0" ry="6.0" x="480.0" y="128.0" width="52.0" height="52.0" class="key"/>
<text x="506.0" y="154.0" class="tap">H</text>
<rect rx="6.0" ry="6.0" x="536.0" y="121.0" width="52.0" height="52.0" class="key"/>
<text x="562.0" y="147.0" class="tap">N</text>
<rect rx="6.0" ry="6.0" x="592.0" y="114.0" width="52.0" height="52.0" class="key"/>
<text x="618.0" y="140.0" class="tap">E</text>
<rect rx="6.0" ry="6.0" x="648.0" y="121.0" width="52.0" height="52.0" class="key"/>
<text x="674.0" y="147.0" class="tap">I</text>
<rect rx="6.0" ry="6.0" x="704.0" y="135.0" width="52.0" height="52.0" class="key"/>
<text x="730.0" y="161.0" class="tap">O</text>
<rect rx="6.0" ry="6.0" x="32.0" y="191.0" width="52.0" height="52.0" class="key"/>
<text x="58.0" y="217.0" class="tap">Z</text>
<text x="58.0" y="241.0" class="hold">LSHFT</text>
<rect rx="6.0" ry="6.0" x="88.0" y="177.0" width="52.0" height="52.0" class="key"/>
<text x="114.0" y="203.0" class="tap">X</text>
<text x="114.0" y="227.0" class="hold">LCTRL</text>
<rect rx="6.0" ry="6.0" x="144.0" y="170.0" width="52.0" height="52.0" class="key"/>
<text x="170.0" y="196.0" class="tap">C</text>
<text x="170.0" y="220.0" class="hold">LALT</text>
<rect rx="6.0" ry="6.0" x="200.0" y="177.0" width="52.0" height="52.0" class="key"/>
<text x="226.0" y="203.0" class="tap">V</text>
<rect rx="6.0" ry="6.0" x="256.0" y="184.0" width="52.0" height="52.0" class="key"/>
<text x="282.0" y="210.0" class="tap">B</text>
<rect rx="6.0" ry="6.0" x="480.0" y="184.0" width="52.0" height="52.0" class="key"/>
<text x="506.0" y="210.0" class="tap">K</text>
<rect rx="6.0" ry="6.0" x="536.0" y="177.0" width="52.0" height="52.0" class="key"/>
<text x="562.0" y="203.0" class="tap">M</text>
<rect rx="6.0" ry="6.0" x="592.0" y="170.0" width="52.0" height="52.0" class="key"/>
<text x="618.0" y="196.0" class="tap">,</text>
<text x="618.0" y="220.0" class="hold">RALT</text>
<rect rx="6.0" ry="6.0" x="648.0" y="177.0" width="52.0" height="52.0" class="key"/>
<text x="674.0" y="203.0" class="tap">.</text>
<text x="674.0" y="227.0" class="hold">RCTRL</text>
<rect rx="6.0" ry="6.0" x="704.0" y="191.0" width="52.0" height="52.0" class="key"/>
<text x="730.0" y="217.0" class="tap">/</text>
<text x="730.0" y="241.0" class="hold">RSHFT</text>
<rect rx="6.0" ry="6.0" x="172.0" y="234.84799999999996" width="52.0" height="52.0" class="key"/>
<text x="198.0" y="260.84799999999996" class="tap">raise</text>
<g transform="rotate(15.0, 259.59999999999997, 269.08000000000004)">
<rect rx="6.0" ry="6.0" x="233.59999999999997" y="243.08000000000004" width="52.0" height="52.0" class="key"/>
<text x="260.12" y="289.28" class="hold">LGUI</text><text x="259.59999999999997" y="269.08000000000004" class="tap">SPACE</text>
</g>


<g transform="rotate(-15.0, 528.4000000000001, 269.08000000000004)">
<rect rx="6.0" ry="6.0" x="502.4000000000001" y="243.08000000000004" width="52.0" height="52.0" class="key"/>
<text x="528.4000000000001" y="269.08000000000004" class="tap">lower</text>
</g>
<rect rx="6.0" ry="6.0" x="564.0" y="234.84799999999996" width="52.0" height="52.0" class="key"/>
<text x="590.0" y="260.84799999999996" class="tap">num</text>
<rect rx="6.0" ry="6.0" x="128.0" y="74.5" width="28.0" height="26.0" class="combo"/>
<text x="142.0" y="87.5" class="combo tap">TAB</text>
</g>
<g class="layer-lower">
<text x="30.0" y="358.6530669589464" class="label">lower:</text>
<rect rx="6.0" ry="6.0" x="32.0" y="409.6530669589464" width="52.0" height="52.0" class="key"/>
<text x="58.0" y="435.6530669589464" class="tap">!</text>
<text x="58.0" y="459.6530669589464" class="hold">adjust</text>
<rect rx="6.0" ry="6.0" x="88.0" y="395.6530669589464" width="52.0" height="52.0" class="key"/>
<text x="114.0" y="421.6530669589464" class="tap">@</text>
<rect rx="6.0" ry="6.0" x="144.0" y="388.6530669589464" width="52.0" height="52.0" class="key"/>
<text x="170.0" y="414.6530669589464" class="tap">{</text>
<rect rx="6.0" ry="6.0" x="200.0" y="395.6530669589464" width="52.0" height="52.0" class="key"/>
<text x="226.0" y="421.6530669589464" class="tap">}</text>
<rect rx="6.0" ry="6.0" x="256.0" y="402.6530669589464" width="52.0" height="52.0" class="key"/>
<text x="282.0" y="428.6530669589464" class="tap">|</text>
<rect rx="6.0" ry="6.0" x="480.0" y="402.6530669589464" width="52.0" height="52.0" class="key"/>
<text x="506.0" y="428.6530669589464" class="tap">¨</text>
<rect rx="6.0" ry="6.0" x="536.0" y="395.6530669589464" width="52.0" height="52.0" class="key"/>
<text x="562.0" y="421.6530669589464" class="tap">´</text>
<rect rx="6.0" ry="6.0" x="592.0" y="388.6530669589464" width="52.0" height="52.0" class="key"/>
<text x="618.0" y="414.6530669589464" class="tap">^</text>
<rect rx="6.0" ry="6.0" x="648.0" y="395.6530669589464" width="52.0" height="52.0" class="key"/>
<text x="674.0" y="421.6530669589464" class="tap">`</text>
<rect rx="6.0" ry="6.0" x="704.0" y="409.6530669589464" width="52.0" height="52.0" class="key"/>
<text x="730.0" y="435.6530669589464" class="tap">:</text>
<rect rx="6.0" ry="6.0" x="32.0" y="465.6530669589464" width="52.0" height="52.0" class="key"/>
<text x="58.0" y="491.6530669589464" class="tap">#</text>
<rect rx="6.0" ry="6.0" x="88.0" y="451.6530669589464" width="52.0" height="52.0" class="key"/>
<text x="114.0" y="477.6530669589464" class="tap">$</text>
<rect rx="6.0" ry="6.0" x="144.0" y="444.6530669589464" width="52.0" height="52.0" class="key"/>
<text x="170.0" y="470.6530669589464" class="tap">(</text>
<rect rx="6.0" ry="6.0" x="200.0" y="451.6530669589464" width="52.0" height="52.0" class="key"/>
<text x="226.0" y="477.6530669589464" class="tap">)</text>
<rect rx="6.0" ry="6.0" x="256.0" y="458.6530669589464" width="52.0" height="52.0" class="key"/>
<text x="282.0" y="484.6530669589464" class="tap">`</text>
<rect rx="6.0" ry="6.0" x="480.0" y="458.6530669589464" width="52.0" height="52.0" class="key"/>
<text x="506.0" y="484.6530669589464" class="tap">RET</text>
<rect rx="6.0" ry="6.0" x="536.0" y="451.6530669589464" width="52.0" height="52.0" class="key"/>
<text x="562.0" y="477.6530669589464" class="tap">LEFT</text>
<rect rx="6.0" ry="6.0" x="592.0" y="444.6530669589464" width="52.0" height="52.0" class="key"/>
<text x="618.0" y="470.6530669589464" class="tap">DOWN</text>
<rect rx="6.0" ry="6.0" x="648.0" y="451.6530669589464" width="52.0" height="52.0" class="key"/>
<text x="674.0" y="477.6530669589464" class="tap">UP</text>
<rect rx="6.0" ry="6.0" x="704.0" y="465.6530669589464" width="52.0" height="52.0" class="key"/>
<text x="730.0" y="491.6530669589464" class="tap">RIGHT</text>
<rect rx="6.0" ry="6.0" x="32.0" y="521.6530669589464" width="52.0" height="52.0" class="key"/>
<text x="58.0" y="547.6530669589464" class="tap">%</text>
<rect rx="6.0" ry="6.0" x="88.0" y="507.6530669589464" width="52.0" height="52.0" class="key"/>
<text x="114.0" y="533.6530669589464" class="tap">^</text>
<rect rx="6.0" ry="6.0" x="144.0" y="500.6530669589464" width="52.0" height="52.0" class="key"/>
<text x="170.0" y="526.6530669589464" class="tap">[</text>
<rect rx="6.0" ry="6.0" x="200.0" y="507.6530669589464" width="52.0" height="52.0" class="key"/>
<text x="226.0" y="533.6530669589464" class="tap">]</text>
<rect rx="6.0" ry="6.0" x="256.0" y="514.6530669589464" width="52.0" height="52.0" class="key"/>
<text x="282.0" y="540.6530669589464" class="tap">~</text>
<rect rx="6.0" ry="6.0" x="480.0" y="514.6530669589464" width="52.0" height="52.0" class="key"/>
<text x="506.0" y="540.6530669589464" class="tap">&amp;</text>
<rect rx="6.0" ry="6.0" x="536.0" y="507.6530669589464" width="52.0" height="52.0" class="key"/>
<text x="562.0" y="533.6530669589464" class="tap">=</text>
<rect rx="6.0" ry="6.0" x="592.0" y="500.6530669589464" width="52.0" height="52.0" class="key"/>
<text x="618.0" y="526.6530669589464" class="tap">&lt;</text>
<rect rx="6.0" ry="6.0" x="648.0" y="507.6530669589464" width="52.0" height="52.0" class="key"/>
<text x="674.0" y="533.6530669589464" class="tap">&gt;</text>
<rect rx="6.0" ry="6.0" x="704.0" y="521.6530669589464" width="52.0" height="52.0" class="key"/>
<text x="730.0" y="547.6530669589464" class="tap">?</text>
<rect rx="6.0" ry="6.0" x="172.0" y="565.5010669589464" width="52.0" height="52.0" class="key"/>
<text x="198.0" y="591.5010669589464" class="tap">LSHFT</text>
<g transform="rotate(15.0, 259.59999999999997, 599.7330669589464)">
<rect rx="6.0" ry="6.0" x="233.59999999999997" y="573.7330669589464" width="52.0" height="52.0" class="key"/>
<text x="259.59999999999997" y="599.7330669589464" class="tap">SPACE</text>
<text x="260.12" y="620.28" class="hold">LGUI</text></g>


<g transform="rotate(-15.0, 528.4000000000001, 599.7330669589464)">
<rect rx="6.0" ry="6.0" x="502.4000000000001" y="573.7330669589464" width="52.0" height="52.0" class="held key"/>
</g>
<rect rx="6.0" ry="6.0" x="564.0" y="565.5010669589464" width="52.0" height="52.0" class="key"/>
<text x="590.0" y="591.5010669589464" class="tap">DEL</text>


</g>
<g class="layer-raise">
<text x="30.0" y="689.3061339178928" class="label">raise:</text>
<rect rx="6.0" ry="6.0" x="32.0" y="740.3061339178928" width="52.0" height="52.0" class="key"/>
<text x="58.0" y="766.3061339178928" class="tap">ESC</text>
<rect rx="6.0" ry="6.0" x="88.0" y="726.3061339178928" width="52.0" height="52.0" class="key"/>
<text x="114.0" y="752.3061339178928" class="tap">é</text>
<rect rx="6.0" ry="6.0" x="144.0" y="719.3061339178928" width="52.0" height="52.0" class="key"/>
<text x="170.0" y="745.3061339178928" class="tap">"</text>
<rect rx="6.0" ry="6.0" x="200.0" y="726.3061339178928" width="52.0" height="52.0" class="key"/>
<text x="226.0" y="752.3061339178928" class="tap">'</text>
<rect rx="6.0" ry="6.0" x="256.0" y="733.3061339178928" width="52.0" height="52.0" class="key"/>
<text x="282.0" y="759.3061339178928" class="tap">(</text>
<rect rx="6.0" ry="6.0" x="480.0" y="733.3061339178928" width="52.0" height="52.0" class="key"/>
<text x="506.0" y="759.3061339178928" class="tap">§</text>
<rect rx="6.0" ry="6.0" x="536.0" y="726.3061339178928" width="52.0" height="52.0" class="key"/>
<text x="562.0" y="752.3061339178928" class="tap">è</text>
<rect rx="6.0" ry="6.0" x="592.0" y="719.3061339178928" width="52.0" height="52.0" class="key"/>
<text x="618.0" y="745.3061339178928" class="tap">!</text>
<rect rx="6.0" ry="6.0" x="648.0" y="726.3061339178928" width="52.0" height="52.0" class="key"/>
<text x="674.0" y="752.3061339178928" class="tap">ç</text>
<rect rx="6.0" ry="6.0" x="704.0" y="740.3061339178928" width="52.0" height="52.0" class="key"/>
<text x="730.0" y="766.3061339178928" class="tap">à</text>
<rect rx="6.0" ry="6.0" x="32.0" y="796.3061339178928" width="52.0" height="52.0" class="key"/>
<rect rx="6.0" ry="6.0" x="88.0" y="782.3061339178928" width="52.0" height="52.0" class="key"/>
<text x="114.0" y="808.3061339178928" class="tap">PREVIOUS</text>
<rect rx="6.0" ry="6.0" x="144.0" y="775.3061339178928" width="52.0" height="52.0" class="key"/>
<text x="170.0" y="801.3061339178928" class="tap">
<tspan x="170.0" dy="-0.6em">PLAY</tspan><tspan x="170.0" dy="1.2em">PAUSE</tspan></text>
<rect rx="6.0" ry="6.0" x="200.0" y="782.3061339178928" width="52.0" height="52.0" class="key"/>
<text x="226.0" y="808.3061339178928" class="tap">NEXT</text>
<rect rx="6.0" ry="6.0" x="256.0" y="789.3061339178928" width="52.0" height="52.0" class="key"/>
<text x="282.0" y="815.3061339178928" class="tap">
<tspan x="282.0" dy="-0.6em">VOLUME</tspan><tspan x="282.0" dy="1.2em">UP</tspan></text>
<rect rx="6.0" ry="6.0" x="480.0" y="789.3061339178928" width="52.0" height="52.0" class="key"/>
<text x="506.0" y="815.3061339178928" class="tap">
<tspan x="506.0" dy="-0.6em">PG</tspan><tspan x="506.0" dy="1.2em">UP</tspan></text>
<rect rx="6.0" ry="6.0" x="536.0" y="782.3061339178928" width="52.0" height="52.0" class="key"/>
<text x="562.0" y="808.3061339178928" class="tap">LEFT</text>
<rect rx="6.0" ry="6.0" x="592.0" y="775.3061339178928" width="52.0" height="52.0" class="key"/>
<text x="618.0" y="801.3061339178928" class="tap">DOWN</text>
<rect rx="6.0" ry="6.0" x="648.0" y="782.3061339178928" width="52.0" height="52.0" class="key"/>
<text x="674.0" y="808.3061339178928" class="tap">UP</text>
<rect rx="6.0" ry="6.0" x="704.0" y="796.3061339178928" width="52.0" height="52.0" class="key"/>
<text x="730.0" y="822.3061339178928" class="tap">RIGHT</text>
<rect rx="6.0" ry="6.0" x="32.0" y="852.3061339178928" width="52.0" height="52.0" class="key"/>
<text x="58.0" y="878.3061339178928" class="tap">LSHFT</text>
<rect rx="6.0" ry="6.0" x="88.0" y="838.3061339178928" width="52.0" height="52.0" class="key"/>
<rect rx="6.0" ry="6.0" x="144.0" y="831.3061339178928" width="52.0" height="52.0" class="key"/>
<rect rx="6.0" ry="6.0" x="200.0" y="838.3061339178928" width="52.0" height="52.0" class="key"/>
<text x="226.0" y="864.3061339178928" class="tap">MUTE</text>
<rect rx="6.0" ry="6.0" x="256.0" y="845.3061339178928" width="52.0" height="52.0" class="key"/>
<text x="282.0" y="871.3061339178928" class="tap">
<tspan x="282.0" dy="-0.6em">VOLUME</tspan><tspan x="282.0" dy="1.2em">DOWN</tspan></text>
<rect rx="6.0" ry="6.0" x="480.0" y="845.3061339178928" width="52.0" height="52.0" class="key"/>
<text x="506.0" y="871.3061339178928" class="tap">
<tspan x="506.0" dy="-0.6em">PG</tspan><tspan x="506.0" dy="1.2em">DN</tspan></text>
<rect rx="6.0" ry="6.0" x="536.0" y="838.3061339178928" width="52.0" height="52.0" class="key"/>
<rect rx="6.0" ry="6.0" x="592.0" y="831.3061339178928" width="52.0" height="52.0" class="key"/>
<rect rx="6.0" ry="6.0" x="648.0" y="838.3061339178928" width="52.0" height="52.0" class="key"/>
<rect rx="6.0" ry="6.0" x="704.0" y="852.3061339178928" width="52.0" height="52.0" class="key"/>
<rect rx="6.0" ry="6.0" x="172.0" y="896.1541339178928" width="52.0" height="52.0" class="held key"/>
<g transform="rotate(15.0, 259.59999999999997, 930.3861339178928)">
<rect rx="6.0" ry="6.0" x="233.59999999999997" y="904.3861339178928" width="52.0" height="52.0" class="key"/>
<text x="260.12" y="950.586134" class="hold">LGUI</text><text x="259.59999999999997" y="930.3861339178928" class="tap">SPACE</text>
</g>


<g transform="rotate(-15.0, 528.4000000000001, 930.3861339178928)">
<rect rx="6.0" ry="6.0" x="502.4000000000001" y="904.3861339178928" width="52.0" height="52.0" class="key"/>
<text x="528.4000000000001" y="930.3861339178928" class="tap">TAB</text>
<text x="528.4000000000001" y="954.3861339178928" class="hold">lower</text>
</g>
<rect rx="6.0" ry="6.0" x="564.0" y="896.1541339178928" width="52.0" height="52.0" class="key"/>
<text x="590.0" y="922.1541339178928" class="tap">DEL</text>


</g>
<g class="layer-adjust">
<text x="30.0" y="1019.9592008768392" class="label">adjust:</text>
<rect rx="6.0" ry="6.0" x="32.0" y="1070.959200876839" width="52.0" height="52.0" class="held key"/>
<rect rx="6.0" ry="6.0" x="88.0" y="1056.959200876839" width="52.0" height="52.0" class="key"/>
<text x="114.0" y="1082.959200876839" class="tap">F2</text>
<rect rx="6.0" ry="6.0" x="144.0" y="1049.959200876839" width="52.0" height="52.0" class="key"/>
<text x="170.0" y="1075.959200876839" class="tap">F3</text>
<rect rx="6.0" ry="6.0" x="200.0" y="1056.959200876839" width="52.0" height="52.0" class="key"/>
<text x="226.0" y="1082.959200876839" class="tap">F4</text>
<rect rx="6.0" ry="6.0" x="256.0" y="1063.959200876839" width="52.0" height="52.0" class="key"/>
<text x="282.0" y="1089.959200876839" class="tap">F5</text>
<rect rx="6.0" ry="6.0" x="480.0" y="1063.959200876839" width="52.0" height="52.0" class="key"/>
<text x="506.0" y="1089.959200876839" class="tap">F6</text>
<rect rx="6.0" ry="6.0" x="536.0" y="1056.959200876839" width="52.0" height="52.0" class="key"/>
<text x="562.0" y="1082.959200876839" class="tap">F7</text>
<rect rx="6.0" ry="6.0" x="592.0" y="1049.959200876839" width="52.0" height="52.0" class="key"/>
<text x="618.0" y="1075.959200876839" class="tap">F8</text>
<rect rx="6.0" ry="6.0" x="648.0" y="1056.959200876839" width="52.0" height="52.0" class="key"/>
<text x="674.0" y="1082.959200876839" class="tap">F9</text>
<rect rx="6.0" ry="6.0" x="704.0" y="1070.959200876839" width="52.0" height="52.0" class="key"/>
<text x="730.0" y="1096.959200876839" class="tap">F10</text>
<rect rx="6.0" ry="6.0" x="32.0" y="1126.959200876839" width="52.0" height="52.0" class="key"/>
<rect rx="6.0" ry="6.0" x="88.0" y="1112.959200876839" width="52.0" height="52.0" class="key"/>
<text x="114.0" y="1138.959200876839" class="tap">F1</text>
<rect rx="6.0" ry="6.0" x="144.0" y="1105.959200876839" width="52.0" height="52.0" class="key"/>
<rect rx="6.0" ry="6.0" x="200.0" y="1112.959200876839" width="52.0" height="52.0" class="key"/>
<rect rx="6.0" ry="6.0" x="256.0" y="1119.959200876839" width="52.0" height="52.0" class="key"/>
<rect rx="6.0" ry="6.0" x="480.0" y="1119.959200876839" width="52.0" height="52.0" class="key"/>
<rect rx="6.0" ry="6.0" x="536.0" y="1112.959200876839" width="52.0" height="52.0" class="key"/>
<rect rx="6.0" ry="6.0" x="592.0" y="1105.959200876839" width="52.0" height="52.0" class="key"/>
<rect rx="6.0" ry="6.0" x="648.0" y="1112.959200876839" width="52.0" height="52.0" class="key"/>
<text x="674.0" y="1138.959200876839" class="tap">F12</text>
<rect rx="6.0" ry="6.0" x="704.0" y="1126.959200876839" width="52.0" height="52.0" class="key"/>
<text x="730.0" y="1152.959200876839" class="tap">F11</text>
<rect rx="6.0" ry="6.0" x="32.0" y="1182.959200876839" width="52.0" height="52.0" class="key"/>
<text x="58.0" y="1208.959200876839" class="tap">LSHFT</text>
<rect rx="6.0" ry="6.0" x="88.0" y="1168.959200876839" width="52.0" height="52.0" class="key"/>
<rect rx="6.0" ry="6.0" x="144.0" y="1161.959200876839" width="52.0" height="52.0" class="key"/>
<rect rx="6.0" ry="6.0" x="200.0" y="1168.959200876839" width="52.0" height="52.0" class="key"/>
<rect rx="6.0" ry="6.0" x="256.0" y="1175.959200876839" width="52.0" height="52.0" class="key"/>
<rect rx="6.0" ry="6.0" x="480.0" y="1175.959200876839" width="52.0" height="52.0" class="key"/>
<rect rx="6.0" ry="6.0" x="536.0" y="1168.959200876839" width="52.0" height="52.0" class="key"/>
<rect rx="6.0" ry="6.0" x="592.0" y="1161.959200876839" width="52.0" height="52.0" class="key"/>
<text x="618.0" y="1187.959200876839" class="tap">
<tspan x="618.0" dy="-0.6em">BT</tspan><tspan x="618.0" dy="1.2em">PRV</tspan></text>
<rect rx="6.0" ry="6.0" x="648.0" y="1168.959200876839" width="52.0" height="52.0" class="key"/>
<text x="674.0" y="1194.959200876839" class="tap">
<tspan x="674.0" dy="-0.6em">BT</tspan><tspan x="674.0" dy="1.2em">NXT</tspan></text>
<rect rx="6.0" ry="6.0" x="704.0" y="1182.959200876839" width="52.0" height="52.0" class="key"/>
<text x="730.0" y="1208.959200876839" class="tap">
<tspan x="730.0" dy="-0.6em">BT</tspan><tspan x="730.0" dy="1.2em">CLR</tspan></text>
<rect rx="6.0" ry="6.0" x="172.0" y="1226.807200876839" width="52.0" height="52.0" class="key"/>
<text x="198.0" y="1252.807200876839" class="tap">LSHFT</text>
<g transform="rotate(15.0, 259.59999999999997, 1261.039200876839)">
<rect rx="6.0" ry="6.0" x="233.59999999999997" y="1235.039200876839" width="52.0" height="52.0" class="key"/>
<text x="259.12" y="1282.239201" class="hold">LGUI</text><text x="259.59999999999997" y="1261.039200876839" class="tap">SPACE</text>
</g>


<g transform="rotate(-15.0, 528.4000000000001, 1261.039200876839)">
<rect rx="6.0" ry="6.0" x="502.4000000000001" y="1235.039200876839" width="52.0" height="52.0" class="held key"/>
</g>
<rect rx="6.0" ry="6.0" x="564.0" y="1226.807200876839" width="52.0" height="52.0" class="key"/>
<text x="590.0" y="1252.807200876839" class="tap">DEL</text>


</g>
<g class="layer-num">
<text x="30.0" y="1350.6122678357856" class="label">num:</text>
<rect rx="6.0" ry="6.0" x="32.0" y="1401.6122678357856" width="52.0" height="52.0" class="key"/>
<text x="58.0" y="1427.6122678357856" class="tap">Arc</text>
<rect rx="6.0" ry="6.0" x="88.0" y="1387.6122678357856" width="52.0" height="52.0" class="key"/>
<text x="114.0" y="1413.6122678357856" class="tap">Slack</text>
<rect rx="6.0" ry="6.0" x="144.0" y="1380.6122678357856" width="52.0" height="52.0" class="key"/>
<text x="170.0" y="1406.6122678357856" class="tap">Mail</text>
<rect rx="6.0" ry="6.0" x="200.0" y="1387.6122678357856" width="52.0" height="52.0" class="key"/>
<text x="226.0" y="1413.6122678357856" class="tap">iTerm</text>
<rect rx="6.0" ry="6.0" x="256.0" y="1394.6122678357856" width="52.0" height="52.0" class="key"/>
<text x="282.0" y="1420.6122678357856" class="tap">VScode</text>
<rect rx="6.0" ry="6.0" x="480.0" y="1394.6122678357856" width="52.0" height="52.0" class="key"/>
<text x="506.0" y="1420.6122678357856" class="tap">-</text>
<rect rx="6.0" ry="6.0" x="536.0" y="1387.6122678357856" width="52.0" height="52.0" class="key"/>
<text x="562.0" y="1413.6122678357856" class="tap">7</text>
<rect rx="6.0" ry="6.0" x="592.0" y="1380.6122678357856" width="52.0" height="52.0" class="key"/>
<text x="618.0" y="1406.6122678357856" class="tap">8</text>
<rect rx="6.0" ry="6.0" x="648.0" y="1387.6122678357856" width="52.0" height="52.0" class="key"/>
<text x="674.0" y="1413.6122678357856" class="tap">9</text>
<rect rx="6.0" ry="6.0" x="704.0" y="1401.6122678357856" width="52.0" height="52.0" class="key"/>
<text x="730.0" y="1427.6122678357856" class="tap">BSPC</text>
<rect rx="6.0" ry="6.0" x="32.0" y="1457.6122678357856" width="52.0" height="52.0" class="key"/>
<text x="58.0" y="1483.6122678357856" class="tap">Emojis</text>
<rect rx="6.0" ry="6.0" x="88.0" y="1443.6122678357856" width="52.0" height="52.0" class="key"/>
<text x="114.0" y="1469.6122678357856" class="tap">Capture</text>
<rect rx="6.0" ry="6.0" x="144.0" y="1436.6122678357856" width="52.0" height="52.0" class="key"/>
<rect rx="6.0" ry="6.0" x="200.0" y="1443.6122678357856" width="52.0" height="52.0" class="key"/>
<rect rx="6.0" ry="6.0" x="256.0" y="1450.6122678357856" width="52.0" height="52.0" class="key"/>
<rect rx="6.0" ry="6.0" x="480.0" y="1450.6122678357856" width="52.0" height="52.0" class="key"/>
<text x="506.0" y="1476.6122678357856" class="tap">+</text>
<rect rx="6.0" ry="6.0" x="536.0" y="1443.6122678357856" width="52.0" height="52.0" class="key"/>
<text x="562.0" y="1469.6122678357856" class="tap">4</text>
<rect rx="6.0" ry="6.0" x="592.0" y="1436.6122678357856" width="52.0" height="52.0" class="key"/>
<text x="618.0" y="1462.6122678357856" class="tap">5</text>
<rect rx="6.0" ry="6.0" x="648.0" y="1443.6122678357856" width="52.0" height="52.0" class="key"/>
<text x="674.0" y="1469.6122678357856" class="tap">6</text>
<rect rx="6.0" ry="6.0" x="704.0" y="1457.6122678357856" width="52.0" height="52.0" class="key"/>
<text x="730.0" y="1483.6122678357856" class="tap">*</text>
<rect rx="6.0" ry="6.0" x="32.0" y="1513.6122678357856" width="52.0" height="52.0" class="key"/>
<rect rx="6.0" ry="6.0" x="88.0" y="1499.6122678357856" width="52.0" height="52.0" class="key"/>
<rect rx="6.0" ry="6.0" x="144.0" y="1492.6122678357856" width="52.0" height="52.0" class="key"/>
<rect rx="6.0" ry="6.0" x="200.0" y="1499.6122678357856" width="52.0" height="52.0" class="key"/>
<rect rx="6.0" ry="6.0" x="256.0" y="1506.6122678357856" width="52.0" height="52.0" class="key"/>
<rect rx="6.0" ry="6.0" x="480.0" y="1506.6122678357856" width="52.0" height="52.0" class="key"/>
<text x="506.0" y="1532.6122678357856" class="tap">0</text>
<rect rx="6.0" ry="6.0" x="536.0" y="1499.6122678357856" width="52.0" height="52.0" class="key"/>
<text x="562.0" y="1525.6122678357856" class="tap">1</text>
<rect rx="6.0" ry="6.0" x="592.0" y="1492.6122678357856" width="52.0" height="52.0" class="key"/>
<text x="618.0" y="1518.6122678357856" class="tap">2</text>
<rect rx="6.0" ry="6.0" x="648.0" y="1499.6122678357856" width="52.0" height="52.0" class="key"/>
<text x="674.0" y="1525.6122678357856" class="tap">3</text>
<rect rx="6.0" ry="6.0" x="704.0" y="1513.6122678357856" width="52.0" height="52.0" class="key"/>
<text x="730.0" y="1539.6122678357856" class="tap">/</text>
<rect rx="6.0" ry="6.0" x="172.0" y="1557.4602678357855" width="52.0" height="52.0" class="key"/>
<text x="198.0" y="1583.4602678357855" class="tap">LSHFT</text>
<g transform="rotate(15.0, 259.59999999999997, 1591.6922678357855)">
<rect rx="6.0" ry="6.0" x="233.59999999999997" y="1565.6922678357855" width="52.0" height="52.0" class="key"/>
<text x="260.12" y="1610.892268" class="hold">LGUI</text><text x="259.59999999999997" y="1591.6922678357855" class="tap">SPACE</text>
</g>


<g transform="rotate(-15.0, 528.4000000000001, 1591.6922678357855)">
<rect rx="6.0" ry="6.0" x="502.4000000000001" y="1565.6922678357855" width="52.0" height="52.0" class="key"/>
<text x="528.4000000000001" y="1591.6922678357855" class="tap">TAB</text>
<text x="528.4000000000001" y="1615.6922678357855" class="hold">lower</text>
</g>
<rect rx="6.0" ry="6.0" x="564.0" y="1557.4602678357855" width="52.0" height="52.0" class="held key"/>


</g>
</svg>